<?xml version="1.0" encoding="UTF-8" standalone="no"?><!DOCTYPE svg PUBLIC "-//W3C//DTD SVG 1.1//EN" "http://www.w3.org/Graphics/SVG/1.1/DTD/svg11.dtd"><svg width="100%" height="100%" viewBox="0 0 2135 2135" version="1.1" xmlns="http://www.w3.org/2000/svg" xmlns:xlink="http://www.w3.org/1999/xlink" xml:space="preserve" xmlns:serif="http://www.serif.com/" style="fill-rule:evenodd;clip-rule:evenodd;stroke-linejoin:round;stroke-miterlimit:2;"><g><g><g><path d="M295.704,296.446c-14.221,14.221 -14.221,35.554 0,49.779l960,960c7.113,7.113 14.221,10.667 24.888,10.667c10.666,-0 17.779,-3.554 24.887,-10.667c14.221,-14.221 14.221,-35.554 0,-49.779l-960,-960c-14.216,-14.225 -35.55,-14.225 -49.775,-0Z" style="fill:#fff;fill-rule:nonzero;"/><path d="M1995.26,388.888c3.554,-3.555 7.112,-7.113 7.112,-10.667l128,-327.113c7.112,-14.221 3.554,-28.446 -7.113,-39.112c-10.666,-10.667 -24.887,-14.221 -39.112,-10.667l-327.112,128c-3.555,0 -7.113,3.554 -10.667,7.113l-677.334,677.333l-677.333,-677.329c-3.554,-3.554 -10.667,-3.554 -14.221,-3.554l-327.112,-128.005c-14.221,-7.108 -28.442,-3.554 -39.109,7.113c-10.666,10.667 -10.666,24.887 -7.112,39.112l128,327.113c-0,3.554 3.554,7.113 7.112,10.667l679.109,679.108l-153.667,153.667c-18.071,-27.592 -49.521,-47 -84.554,-47c-32,-3.554 -64,10.666 -85.333,35.554c-21.334,24.887 -32,60.446 -24.888,92.446c10.917,54.583 31.258,106.462 60.121,153.212l-362.833,362.834c-32.338,-25.138 -80.138,-22.971 -109.734,6.62l-32,32c-17.779,17.78 -24.887,39.113 -24.887,60.446c-0,24.888 10.666,46.221 24.887,60.446l131.554,131.554c17.78,17.779 39.113,24.888 60.446,24.888c21.334,-0 42.667,-10.667 60.446,-24.888l32,-32c17.779,-17.779 24.888,-39.112 24.888,-60.446c-0,-18.866 -6.138,-35.683 -15.296,-48.912l359.391,-362.575c48.796,30.842 102.684,51.867 160.792,63.042l17.779,-0c24.888,-0 49.779,-10.667 64,-28.446c24.888,-21.334 39.113,-53.334 39.113,-85.334c-0,-32.962 -15.65,-64.287 -40.638,-83.808l150.859,-150.858l149.454,149.454c-30.354,18.95 -49.9,51.887 -49.9,88.767c-0,32 14.221,64 39.112,85.333c17.78,17.779 42.667,24.887 67.555,24.887c7.112,0 10.666,-3.554 17.779,0c58.15,-11.183 112.066,-32.229 160.891,-63.108l360.629,360.629c-11.745,15.634 -16.633,33.275 -16.633,50.925c0,24.888 10.667,46.221 24.888,60.446l32,32c17.779,17.779 39.112,24.888 60.445,24.888c21.334,-0 42.667,-10.667 56.888,-24.888l131.554,-131.554c17.779,-17.779 24.888,-39.113 24.888,-60.446c-0,-24.887 -10.667,-46.221 -24.888,-60.446l-32,-32c-28.975,-28.975 -75.396,-31.621 -107.675,-8.121l-363.054,-363.054c27.513,-46.304 47.504,-97.575 58.287,-151.491c3.555,-35.555 -3.554,-67.555 -24.887,-92.446c-21.333,-24.892 -53.333,-35.554 -85.333,-35.554c-32.721,-0 -62.296,15.429 -80.792,40.095l-148.608,-148.608l673.845,-677.262Zm-202.666,-192l245.333,-96l-96,245.333l-673.771,666.679l-48.008,-48.008l618.667,-618.667c14.22,-14.221 14.22,-35.554 -0,-49.779c-14.221,-14.221 -35.555,-14.221 -49.78,-0l-618.666,618.667l-51.546,-51.546l673.771,-666.679Zm-1532.45,1831.11l-32,32c-7.113,3.554 -14.221,3.554 -17.779,0l-135.113,-131.554c-3.554,-3.554 -3.554,-7.113 -3.554,-10.667c0,-3.554 0,-7.112 7.113,-10.666l32,-32c3.554,-3.555 14.22,-3.555 17.779,-0l6.429,6.429c1.775,4.062 4.362,7.916 7.796,11.35l99.554,99.554c3.762,3.762 7.537,6.496 11.825,8.271l5.954,5.954c3.554,3.554 3.554,7.112 3.554,10.667c0,3.554 -0.004,7.108 -3.558,10.662Zm8.346,-111.454l-50.442,-49.113l354.075,-354.075c7.104,8.234 14.513,16.242 22.246,23.975l3.554,3.555c7.779,7.779 15.767,15.187 23.917,22.304l-353.35,353.354Zm610.321,-329.433c-7.113,3.554 -14.221,10.666 -28.446,7.112c-74.667,-14.221 -149.334,-53.333 -202.667,-106.667c-53.333,-53.333 -88.887,-124.445 -103.112,-202.666c-3.555,-10.667 -0,-24.888 7.112,-32c3.554,-3.554 14.221,-10.667 28.446,-10.667c14.225,0 28.446,14.221 32,28.446c0.692,3.921 1.467,7.821 2.308,11.708c-0.125,3.329 0.246,6.621 1.25,9.625c14.221,53.334 42.667,103.113 81.779,145.779c39.113,39.113 88.888,67.555 142.221,81.78l8.159,-0c5.57,1.341 11.15,2.57 16.729,3.554c17.779,3.554 28.446,17.779 28.446,35.554c-0.005,10.662 -7.113,21.329 -14.225,28.442Zm-39.113,-145.78c-35.554,-10.666 -64,-32 -92.446,-56.887c-24.887,-24.888 -46.221,-56.888 -56.887,-92.446l176,-176l149.333,149.333l-176,176Zm1176.89,430.221c3.554,0 7.112,0 10.667,3.554l32,32c3.554,3.554 3.554,7.113 3.554,10.667c-0,0 -0,3.554 -7.113,10.667l-131.554,131.558c-3.554,3.554 -14.221,3.554 -17.779,0l-32,-32c-3.554,-3.554 -3.554,-7.112 -3.554,-10.667c-0,-3.554 -0,-7.112 3.554,-10.666l6.954,-6.955c3.892,-1.75 7.7,-4.145 10.821,-7.266l99.554,-99.554c3.433,-3.434 6.021,-7.288 7.796,-11.35l6.429,-6.429c3.558,-3.559 7.113,-3.559 10.671,-3.559Zm-101.333,-5.333l-49.78,49.779l-352.804,-352.804c8.15,-7.117 16.138,-14.529 23.917,-22.304l3.554,-3.554c7.488,-7.93 14.7,-16.138 21.633,-24.592l353.48,353.475Zm-357.334,-620.442c14.221,0 21.334,7.113 24.888,10.667c7.112,10.667 10.666,21.333 7.112,32c-14.221,74.667 -49.779,142.221 -103.108,199.108l-0.004,0.004c-53.334,53.334 -124.442,92.442 -202.663,106.663c-14.221,3.554 -24.887,-3.554 -28.446,-7.113c-10.666,-7.112 -14.22,-17.779 -14.22,-28.445c-0,-14.221 14.22,-28.446 28.445,-32c60.446,-10.667 117.334,-42.667 167.113,-88.888c0.879,-0.879 1.712,-1.792 2.579,-2.679c0.325,-0.296 0.654,-0.579 0.979,-0.875c42.667,-39.113 67.554,-88.888 81.779,-145.779c0,-3.021 -0.316,-6.334 -0.887,-9.679c0.292,-1.517 0.621,-3.021 0.887,-4.542c3.546,-17.775 17.767,-28.442 35.546,-28.442Zm-172.5,140.434c-0.967,0.954 -1.946,1.887 -2.921,2.825c-28.046,24.441 -56.191,45.333 -91.246,55.85l-1098.67,-1098.67l-92.446,-248.888l245.333,96l1095.11,1102.22c-10.421,31.254 -31.025,65.875 -55.167,90.659Z" style="fill:#fff;fill-rule:nonzero;"/></g></g></g></svg>